<svg xmlns="http://www.w3.org/2000/svg" viewBox="0 0 100 100" width="64" height="64">
  <rect width="100" height="100" rx="16" fill="#000000" />
  
  <rect x="35" y="20" width="30" height="35" rx="4" fill="#FFE800" />
  <rect x="40" y="25" width="20" height="10" fill="#333333" />
  <rect x="42" y="40" width="16" height="4" fill="#333333" />

  <rect x="20" y="25" width="15" height="25" rx="3" fill="#999999" />
  <rect x="22" y="20" width="11" height="5" fill="#666666" />
  
  <rect x="65" y="25" width="15" height="25" rx="3" fill="#999999" />
  <rect x="67" y="20" width="11" height="5" fill="#666666" />

  <polygon points="23,50 27,80 32,50" fill="#FFE800" />
  <polygon points="25,50 27,65 29,50" fill="#FFFFFF" />
  <polygon points="68,50 72,80 77,50" fill="#FFE800" />
  <polygon points="70,50 72,65 74,50" fill="#FFFFFF" />

  <polygon points="0,100 0,90 10,85 20,95 30,85 40,95 50,85 60,95 70,85 80,95 90,85 100,95 100,100" fill="#FF5500" opacity="0.9"/>
</svg>
