<svg xmlns="http://www.w3.org/2000/svg" viewBox="0 0 100 100" width="64" height="64">
  <rect width="100" height="100" rx="16" fill="#000000" />
  
  <polygon points="20,65 5,85 10,85 20,75 30,85 35,85" fill="#FFE800" />
  <rect x="10" y="50" width="20" height="15" rx="2" fill="#FFE800" />
  <rect x="16" y="30" width="8" height="20" fill="#FFE800" />

  <polygon points="80,65 65,85 70,85 80,75 90,85 95,85" fill="#FFE800" />
  <rect x="70" y="50" width="20" height="15" rx="2" fill="#FFE800" />
  <rect x="76" y="30" width="8" height="20" fill="#FFE800" />

  <polygon points="50,55 30,85 36,85 50,68 64,85 70,85" fill="#FFE800" />
  <rect x="35" y="35" width="30" height="20" rx="3" fill="#FFE800" />
  <rect x="42" y="10" width="16" height="25" fill="#FFE800" />
  <rect x="44" y="10" width="4" height="25" fill="#000000" opacity="0.5" />
  <rect x="52" y="10" width="4" height="25" fill="#000000" opacity="0.5" />
</svg>
