<svg xmlns="http://www.w3.org/2000/svg" viewBox="0 0 100 100" width="64" height="64">
  <rect width="100" height="100" rx="16" fill="#000000" />
  <path d="M 50 15 C 50 15 20 45 20 65 C 20 85 35 90 50 90 C 65 90 80 85 80 65 C 80 45 50 15 50 15 Z" fill="#FFE800" />
  <path d="M 50 40 C 50 40 35 60 35 75 C 35 85 45 85 50 85 C 55 85 65 85 65 75 C 65 60 50 40 50 40 Z" fill="#000000" />
  <path d="M 50 55 C 50 55 42 70 42 80 C 42 85 48 85 50 85 C 52 85 58 85 58 80 C 58 70 50 55 50 55 Z" fill="#FFE800" />
</svg>
