<svg viewBox="0 0 256 256" xmlns="http://www.w3.org/2000/svg" xml:space="preserve" style="fill-rule:evenodd;clip-rule:evenodd;stroke-linejoin:round;stroke-miterlimit:2">
  <desc>Traced by Dogo314</desc>
  <path style="fill:none" d="M270 3533h256v256H270z" transform="translate(-270 -3533)"/>
  <path d="m256 0 200 67-14 198 62 64-83 99-55-22-23 81-87 25-87-25-23-81-55 22-83-99 62-64L56 67zM148 248c-28.148 0-51 22.852-51 51s22.852 51 51 51 51-22.852 51-51-22.852-51-51-51m108 102-33 50 15.904 15.904L256 390l17.096 25.904L289 400zm108-102c-28.148 0-51 22.852-51 51s22.852 51 51 51 51-22.852 51-51-22.852-51-51-51" style="fill:#ffe800" transform="scale(.5)"/>
</svg>
